<?xml version="1.0" standalone="no"?>
<!DOCTYPE svg PUBLIC "-//W3C//DTD SVG 20010904//EN"
 "http://www.w3.org/TR/2001/REC-SVG-20010904/DTD/svg10.dtd">
<svg version="1.0" xmlns="http://www.w3.org/2000/svg"
 width="300.000000pt" height="300.000000pt" viewBox="0 0 300.000000 300.000000"
 preserveAspectRatio="xMidYMid meet">
<metadata>
Created by potrace 1.14, written by Peter Selinger 2001-2017
</metadata>
<g transform="translate(0.000000,300.000000) scale(0.100000,-0.100000)"
fill="#000000" stroke="none">
<path d="M625 2460 c-3 -5 -12 -7 -20 -3 -8 3 -15 1 -15 -5 0 -6 -14 -15 -31
-21 -17 -6 -28 -15 -24 -21 4 -6 3 -9 -2 -8 -4 2 -9 -1 -10 -5 -1 -5 -11 -17
-23 -27 -12 -10 -22 -22 -22 -27 -1 -20 -19 -54 -26 -49 -4 3 -8 -7 -8 -22 1
-22 -3 -26 -19 -24 -15 3 -17 1 -9 -8 15 -15 6 -53 -11 -47 -7 3 -11 -5 -10
-24 1 -17 -2 -26 -8 -22 -6 4 -8 -1 -4 -11 4 -9 3 -15 -2 -12 -5 3 -12 -6 -16
-21 -3 -15 -14 -33 -23 -41 -9 -7 -12 -11 -5 -8 8 4 6 -4 -3 -24 -9 -16 -13
-34 -9 -40 3 -5 -1 -10 -9 -10 -9 0 -16 -9 -16 -20 0 -11 -5 -20 -10 -20 -6 0
-9 -6 -8 -12 2 -7 -2 -12 -9 -11 -7 2 -10 -4 -6 -13 3 -9 0 -20 -8 -25 -12 -7
-12 -9 0 -9 10 0 8 -5 -6 -17 -11 -10 -19 -28 -18 -40 1 -12 -3 -19 -10 -17
-6 3 -12 -1 -13 -8 -2 -32 -9 -50 -23 -59 -8 -5 -10 -9 -6 -9 5 0 0 -16 -12
-36 -12 -19 -15 -32 -9 -28 10 6 10 5 1 -8 -7 -8 -9 -19 -5 -23 4 -5 1 -5 -5
-1 -9 5 -13 0 -13 -13 0 -10 -5 -21 -11 -23 -6 -2 -12 -15 -12 -30 -1 -14 -6
-26 -12 -25 -5 1 -9 -4 -8 -10 2 -7 -1 -13 -7 -13 -5 0 -7 -7 -4 -15 4 -8 -1
-17 -9 -21 -9 -3 -13 -12 -10 -20 3 -8 0 -14 -7 -14 -6 0 -9 -4 -5 -9 3 -5 -1
-16 -9 -24 -8 -8 -12 -17 -9 -21 4 -3 2 -6 -4 -6 -6 0 -9 -8 -6 -19 3 -10 -1
-22 -8 -26 -8 -6 -10 -4 -4 5 5 9 4 11 -3 6 -18 -11 -16 -116 2 -116 8 0 16
-7 20 -15 3 -8 17 -20 31 -25 17 -7 24 -14 19 -22 -5 -8 0 -7 11 2 17 14 18
13 12 -2 -3 -10 -2 -18 4 -18 6 0 8 -13 5 -30 -2 -17 0 -30 6 -30 7 0 6 -5 -1
-14 -7 -8 -8 -17 -3 -20 10 -6 8 -48 -4 -67 -4 -7 -3 -10 3 -6 6 4 13 0 16 -7
3 -8 1 -17 -6 -20 -7 -2 -3 -5 8 -5 17 -1 17 -3 5 -11 -11 -7 -11 -10 -2 -10
7 0 11 -4 8 -9 -4 -5 0 -12 6 -14 10 -4 10 -6 0 -6 -9 -1 -10 -6 -3 -20 6 -10
7 -22 3 -26 -4 -5 -1 -5 5 -1 7 4 14 2 14 -3 3 -21 4 -26 12 -39 5 -7 3 -12
-5 -12 -10 0 -9 -3 2 -9 8 -6 18 -7 24 -4 5 4 7 -1 3 -10 -3 -9 0 -18 9 -21 8
-3 14 -13 14 -21 0 -19 25 -47 34 -38 3 4 6 -4 6 -16 0 -18 4 -22 17 -17 10 4
14 4 11 0 -8 -7 11 -29 27 -33 6 -1 15 -11 20 -21 10 -18 13 -20 36 -20 5 0 8
-4 5 -8 -2 -4 5 -9 16 -9 12 -1 24 -6 27 -10 11 -14 45 -38 38 -26 -5 7 0 9
13 6 11 -3 23 -10 27 -16 4 -6 1 -7 -7 -2 -9 5 -11 4 -6 -3 5 -9 13 -9 28 -1
13 7 18 7 14 1 -4 -6 7 -12 26 -14 21 -2 32 -8 30 -16 -1 -8 2 -11 8 -7 6 3 8
10 5 15 -8 13 21 6 41 -10 16 -13 17 -13 9 0 -6 10 -2 9 12 -3 12 -10 23 -15
26 -10 5 8 33 8 97 0 14 -2 30 -1 35 2 18 10 35 9 35 -1 0 -7 5 -7 13 1 9 7
17 7 24 0 7 -7 14 -5 22 5 7 8 19 12 27 9 8 -3 14 1 14 8 0 11 2 11 10 -1 7
-12 12 -12 22 -2 6 6 22 12 34 12 12 0 24 7 28 15 3 9 12 12 21 9 9 -4 22 1
31 12 9 11 13 12 9 4 -4 -8 3 -4 15 10 12 14 19 19 15 13 -12 -25 6 -12 54 36
27 27 53 46 57 43 4 -4 4 -2 0 5 -3 6 2 16 11 22 10 6 14 11 8 11 -5 0 -4 4 2
8 7 4 14 18 16 30 2 12 7 25 12 29 4 5 5 2 0 -6 -6 -10 -4 -12 4 -7 7 5 10 14
7 22 -3 8 -1 14 3 14 5 0 8 11 6 25 -2 20 1 23 11 15 9 -9 12 -5 10 14 -2 15
2 26 8 26 6 0 4 5 -4 10 -9 6 -11 10 -3 10 7 0 10 7 6 17 -4 10 -2 14 4 10 5
-3 10 0 10 8 0 8 -4 15 -9 15 -5 0 -6 5 -3 10 4 6 10 8 15 5 4 -3 6 5 2 17 -3
12 -1 19 4 15 11 -6 11 33 0 51 -4 6 -3 20 2 29 6 10 6 26 1 40 -5 13 -5 23
-1 23 4 0 7 25 7 55 0 30 -3 55 -7 55 -4 0 -3 11 2 24 5 13 6 27 3 30 -4 3 1
6 11 6 9 0 19 7 22 15 4 8 11 12 16 9 6 -4 14 0 19 7 5 8 9 9 9 4 0 -7 23 -10
55 -10 40 1 55 -2 55 -12 0 -7 5 -13 11 -13 5 0 7 5 4 11 -4 6 1 5 12 -2 18
-11 20 -24 20 -120 1 -59 3 -111 6 -116 3 -5 2 -15 -3 -23 -5 -8 -2 -22 7 -37
14 -21 14 -23 -1 -29 -19 -7 -22 -25 -3 -22 7 2 11 -6 9 -19 -2 -13 1 -23 7
-23 5 0 8 -9 6 -20 -2 -11 1 -20 7 -20 7 0 6 -5 -1 -14 -10 -11 -9 -16 4 -23
9 -5 17 -19 18 -31 1 -12 5 -22 9 -22 4 0 5 -7 2 -15 -4 -9 0 -15 8 -15 7 0
14 -9 15 -19 2 -19 18 -43 61 -87 13 -13 19 -24 15 -24 -4 0 3 -6 17 -13 14
-8 24 -18 23 -23 -1 -6 8 -11 19 -11 12 -1 24 -6 27 -11 9 -14 92 -51 121 -54
14 -2 28 -7 31 -11 3 -5 25 -9 47 -10 23 -1 42 -4 42 -8 0 -3 7 -6 15 -6 8 0
15 3 15 6 0 3 11 6 25 6 14 0 25 -2 25 -5 0 -3 16 -5 35 -5 19 0 35 3 35 7 0
8 21 5 37 -5 6 -4 13 -1 16 5 3 10 8 9 22 -2 11 -9 16 -10 11 -2 -4 7 -2 12 4
12 6 0 8 4 5 10 -3 6 1 7 9 4 9 -3 13 -11 9 -18 -3 -6 2 -3 13 6 11 9 28 17
39 17 25 -1 47 4 62 14 7 5 23 10 35 12 12 3 25 10 30 17 4 7 8 9 8 4 0 -6 7
-1 16 10 8 10 13 13 9 7 -9 -19 4 -16 23 5 10 10 15 13 12 7 -3 -6 3 -2 12 8
10 11 18 16 18 12 0 -4 12 7 27 24 15 17 33 31 40 31 7 0 12 6 11 13 -2 6 5
11 14 11 10 -1 16 2 13 6 -9 14 7 41 20 36 8 -3 11 2 8 15 -3 11 0 19 6 19 7
0 9 4 6 10 -3 5 1 10 9 10 16 0 17 4 20 47 0 12 5 25 10 30 6 5 6 2 1 -7 -6
-10 -5 -12 3 -5 6 6 13 29 15 53 2 24 10 48 17 55 10 9 11 9 5 -2 -5 -9 -4
-12 3 -7 9 5 8 14 -4 31 -11 18 -12 25 -3 31 8 5 9 3 4 -6 -5 -9 -4 -11 4 -6
9 6 9 11 1 21 -8 10 -8 15 0 20 7 5 8 11 1 19 -6 7 -6 17 -1 26 5 9 5 19 -2
27 -8 9 -7 13 2 13 8 0 10 3 7 7 -4 3 -1 13 6 21 10 13 9 14 -2 7 -10 -5 -12
-4 -7 3 4 7 14 12 22 12 8 0 17 7 20 15 5 13 9 13 22 3 12 -10 14 -10 8 0 -4
7 -2 12 4 12 6 0 8 5 4 12 -5 7 -1 9 13 6 20 -5 21 -1 21 64 0 53 -3 66 -12
58 -17 -13 -29 -1 -15 16 6 8 7 14 0 18 -6 4 -8 13 -5 20 3 8 0 17 -7 22 -8 5
-10 3 -4 -6 6 -9 4 -11 -4 -5 -7 4 -11 18 -8 31 2 13 1 22 -3 19 -3 -2 -15 10
-25 27 -10 17 -13 28 -7 24 8 -5 10 -2 6 8 -3 9 -11 13 -17 9 -6 -4 -8 0 -4
10 4 10 1 17 -5 17 -6 0 -8 3 -5 7 4 3 -1 15 -10 26 -13 15 -14 18 -3 12 13
-8 13 -6 1 8 -7 9 -16 15 -20 13 -4 -3 -6 8 -5 25 1 18 -3 29 -11 29 -7 0 -12
11 -12 25 0 14 -8 34 -17 44 -9 9 -16 25 -16 34 0 9 -5 17 -11 17 -5 0 -7 5
-4 10 3 6 1 10 -4 10 -6 0 -10 3 -10 8 3 17 -2 32 -16 46 -8 8 -16 26 -17 40
-1 13 -6 22 -10 20 -4 -3 -9 0 -9 5 -3 20 -5 26 -22 58 -9 18 -17 38 -17 46 0
8 -7 18 -16 21 -8 3 -12 11 -9 17 4 5 -1 19 -10 29 -9 10 -17 24 -19 32 -1 7
-5 19 -9 26 -5 6 -5 12 -1 12 4 0 -1 7 -12 16 -10 8 -12 12 -4 8 12 -7 13 -5
3 8 -7 8 -9 19 -5 23 4 5 1 5 -5 1 -8 -4 -13 -1 -13 8 0 9 -6 16 -12 16 -9 0
-8 4 2 10 10 6 11 10 3 10 -7 0 -13 6 -13 14 0 7 -7 19 -15 26 -8 7 -12 16 -9
21 3 5 0 9 -5 9 -6 0 -11 7 -11 15 0 8 -4 15 -10 15 -5 0 -10 6 -10 14 0 8 -7
17 -16 20 -8 3 -12 11 -8 17 4 8 3 9 -4 5 -7 -4 -12 -2 -12 4 0 6 -4 9 -9 6
-5 -4 -11 -1 -13 5 -2 6 -16 13 -30 14 -15 2 -31 6 -36 9 -5 3 -21 -3 -35 -14
-14 -11 -28 -20 -32 -20 -10 0 -35 -27 -35 -39 0 -5 -10 -17 -21 -25 -14 -9
-19 -21 -15 -31 3 -9 2 -13 -4 -10 -6 3 -10 1 -10 -5 0 -6 -5 -8 -12 -4 -7 5
-8 3 -4 -5 5 -7 0 -19 -10 -27 -11 -9 -13 -13 -7 -9 9 4 11 1 7 -9 -3 -9 -10
-14 -14 -11 -4 3 -10 -2 -14 -10 -3 -8 -1 -15 4 -15 5 0 7 -7 3 -16 -4 -11 1
-22 12 -30 10 -8 15 -14 9 -15 -5 0 0 -4 11 -8 23 -9 57 -2 49 10 -3 5 1 6 9
3 13 -5 29 15 31 39 1 5 12 17 26 28 14 12 19 18 13 14 -20 -10 -15 6 8 26 11
10 18 22 15 27 -3 5 2 12 12 14 19 5 76 -48 61 -58 -5 -3 0 -15 11 -26 11 -12
20 -30 20 -40 0 -11 5 -16 10 -13 6 4 10 -5 10 -20 0 -14 7 -28 15 -31 8 -4
15 -10 15 -16 0 -5 -5 -6 -12 -2 -6 4 0 -8 14 -27 14 -19 23 -40 21 -46 -3 -7
1 -13 9 -13 8 0 15 -12 16 -26 1 -15 9 -32 19 -39 9 -7 13 -17 9 -23 -4 -7 -3
-12 3 -12 5 0 8 -9 6 -20 -2 -11 1 -19 8 -17 6 1 12 -4 13 -10 1 -7 3 -15 4
-18 1 -3 3 -11 4 -17 1 -7 8 -12 15 -10 7 1 10 -2 6 -8 -4 -6 -1 -18 7 -27 11
-14 11 -16 -2 -8 -8 4 -4 -3 9 -18 12 -14 20 -30 16 -36 -3 -6 -1 -11 5 -11 6
0 8 -4 5 -10 -3 -5 -1 -10 5 -10 6 0 9 -4 6 -9 -3 -5 1 -11 9 -15 8 -3 12 -12
9 -19 -3 -8 2 -22 11 -31 9 -9 14 -23 11 -31 -3 -9 3 -24 14 -35 11 -11 17
-20 14 -20 -4 0 -1 -7 6 -15 10 -12 10 -15 -1 -15 -11 0 -11 -2 1 -9 8 -6 17
-8 20 -6 3 2 7 -8 8 -23 1 -15 7 -29 12 -30 6 -2 8 -8 4 -13 -3 -5 -1 -9 4 -9
6 0 8 -9 5 -20 -7 -25 -23 -26 -23 -2 0 13 -2 14 -9 3 -7 -11 -9 -11 -14 0 -5
12 -6 12 -6 0 -1 -11 -4 -11 -16 -1 -12 10 -15 10 -15 0 0 -9 -3 -10 -13 -1
-10 8 -17 7 -25 -1 -8 -8 -13 -7 -18 6 -5 14 -9 15 -15 4 -7 -10 -9 -11 -9 0
0 8 -5 10 -12 6 -7 -5 -21 -9 -30 -9 -15 -1 -15 1 -5 13 10 13 9 14 -9 4 -16
-8 -24 -8 -32 0 -9 9 -12 9 -12 -2 0 -9 -6 -8 -22 6 -19 17 -21 17 -15 1 6
-15 4 -16 -16 -6 -12 7 -22 13 -23 13 0 1 -8 -5 -18 -13 -15 -12 -16 -12 -10
5 6 15 4 17 -6 7 -8 -8 -20 -9 -36 -3 -13 5 -24 6 -24 2 0 -4 -9 -8 -20 -8
-11 0 -20 4 -20 9 0 5 -6 4 -14 -2 -8 -7 -17 -8 -20 -3 -4 7 -51 9 -51 2 0 -1
-10 -3 -22 -4 -13 -2 -23 1 -23 4 0 8 -56 3 -71 -5 -5 -4 -9 -1 -9 6 0 8 -4 8
-15 -1 -11 -9 -15 -9 -15 -1 0 9 -5 9 -21 0 -17 -9 -23 -8 -30 2 -8 12 -13 6
-11 -12 1 -3 -5 -6 -13 -6 -8 0 -12 4 -9 9 3 4 0 8 -5 8 -6 0 -11 -5 -11 -12
0 -6 -10 -3 -22 8 -12 10 -19 14 -15 9 3 -6 2 -17 -4 -25 -6 -10 -9 -11 -9 -2
0 6 -5 12 -11 12 -5 0 -8 -4 -5 -8 3 -5 -15 -8 -40 -7 -24 0 -44 -2 -44 -6 0
-3 -11 -5 -25 -4 -14 2 -25 -2 -25 -8 0 -7 -5 -5 -10 3 -8 12 -10 12 -10 1 0
-8 -7 -11 -19 -8 -11 3 -22 -1 -25 -9 -6 -15 -36 -8 -48 10 -5 7 -8 6 -8 -4
-1 -9 -4 -7 -10 6 -6 15 -16 20 -39 19 -16 -1 -28 2 -25 7 5 8 -9 12 -38 9
-10 -1 -18 4 -18 11 0 8 -3 9 -8 3 -9 -13 -32 -18 -32 -7 0 4 -9 8 -20 8 -11
0 -20 -4 -20 -8 0 -5 -9 -4 -20 2 -15 8 -20 8 -20 -1 0 -7 -10 -9 -25 -7 -18
4 -23 2 -16 -6 9 -11 -4 -15 -56 -19 -7 0 -10 -3 -8 -6 2 -4 -8 -11 -21 -18
-20 -9 -28 -8 -51 10 -15 12 -24 16 -19 9 4 -6 3 -12 -3 -12 -5 0 -13 5 -16
10 -3 6 -12 10 -18 10 -7 0 -6 -4 3 -11 12 -9 12 -10 -3 -5 -10 3 -21 6 -23 6
-3 0 -3 3 -1 8 3 4 -24 7 -58 6 -35 0 -62 3 -59 8 3 4 -4 8 -16 8 -14 0 -19
-4 -14 -12 5 -9 2 -8 -9 1 -10 7 -34 15 -55 16 -20 1 -38 3 -39 5 -7 5 -71 2
-81 -4 -7 -4 -12 -4 -12 1 0 7 -90 9 -97 3 -8 -7 -29 -5 -40 2 -6 5 -14 4 -18
-2 -5 -8 -10 -8 -20 0 -10 8 -15 8 -20 0 -5 -8 -10 -8 -20 0 -9 8 -15 8 -20 0
-4 -7 -12 -7 -26 0 -13 8 -19 7 -19 0 0 -6 -11 -8 -25 -6 -13 3 -27 0 -31 -5
-4 -6 -14 -3 -27 8 -11 10 -17 13 -14 7 4 -7 -1 -15 -11 -19 -27 -13 -43 -14
-36 -4 3 5 9 7 14 4 5 -3 11 -2 14 3 2 4 -8 8 -23 7 -16 0 -27 -4 -25 -10 2
-5 -9 -10 -26 -11 -16 -1 -30 4 -30 10 0 6 -4 5 -9 -3 -5 -8 -18 -12 -30 -8
-12 3 -21 1 -21 -4 0 -6 -8 -5 -20 1 -14 7 -20 7 -20 0 0 -5 -5 -10 -11 -10
-5 0 -7 6 -3 13 6 9 4 9 -8 -1 -13 -10 -17 -10 -22 4 -9 25 -7 41 4 24 5 -8
10 -13 11 -10 0 3 3 14 5 25 2 11 5 27 6 36 1 9 7 15 14 12 7 -2 15 1 20 8 4
8 3 10 -4 5 -7 -4 -12 -3 -12 3 0 5 5 13 10 16 6 4 8 11 5 16 -4 5 -1 9 5 9 6
0 8 5 5 10 -3 6 -1 10 4 10 6 0 10 3 10 8 -1 4 0 10 1 15 1 4 3 13 4 20 0 6 6
12 13 12 6 0 15 4 20 9 5 6 2 6 -6 1 -11 -6 -13 -4 -6 11 4 10 8 27 9 36 0 9
5 16 10 15 9 -2 11 2 15 34 0 5 5 8 9 5 4 -2 9 5 9 16 1 12 6 24 11 27 5 3 8
16 7 29 -1 16 2 21 13 17 10 -3 12 0 8 10 -3 8 -1 15 4 15 5 0 7 7 4 15 -4 8
1 17 10 21 9 3 13 10 10 15 -3 5 1 9 8 9 9 0 9 3 -2 10 -11 7 -11 10 -2 10 7
0 11 4 8 9 -3 5 1 12 10 15 9 3 14 13 11 20 -3 8 -1 16 4 18 6 2 12 12 13 23
2 11 8 19 13 18 5 -1 9 12 8 28 -1 22 2 29 13 24 10 -3 12 0 8 10 -3 8 -1 15
5 15 6 0 7 5 4 10 -3 6 3 24 15 40 12 17 19 30 15 30 -3 0 3 9 14 21 11 12 18
30 16 40 -2 10 1 18 8 16 7 -1 11 4 9 11 -1 8 7 16 18 19 11 3 17 10 14 15 -4
6 4 5 16 -2 12 -6 19 -14 16 -17 -2 -3 4 -15 15 -26 11 -12 17 -27 15 -34 -3
-8 1 -10 12 -6 15 6 15 5 3 -10 -12 -15 -12 -17 4 -11 11 5 16 3 12 -3 -6 -10
17 -34 52 -52 14 -8 22 -8 26 0 4 6 14 8 22 5 8 -3 12 -2 9 2 -3 5 1 20 8 34
15 28 3 63 -17 51 -7 -4 -6 0 2 10 12 15 11 17 -5 17 -15 0 -16 2 -5 9 11 7 9
11 -8 21 -13 6 -20 18 -17 25 3 8 0 17 -6 21 -7 5 -8 2 -4 -7 4 -8 1 -5 -8 6
-8 11 -20 25 -25 31 -5 7 -7 15 -4 18 4 3 1 6 -6 6 -7 0 -9 5 -6 10 4 6 3 10
-2 9 -20 -4 -33 2 -33 15 0 8 -7 17 -16 20 -15 6 -15 4 -3 -11 13 -17 13 -17
-13 0 -15 9 -29 13 -33 7z m-59 -1139 c-3 -4 19 -8 49 -7 30 1 55 5 55 10 0 5
6 4 13 -1 14 -11 27 -11 45 0 6 5 12 5 12 0 0 -4 53 -8 118 -8 77 0 122 -4
132 -12 24 -19 26 -19 43 -4 10 7 17 9 17 3 0 -13 59 -21 63 -9 1 5 11 2 20
-7 9 -10 17 -13 17 -8 0 5 7 9 15 9 8 0 12 -4 10 -8 -3 -4 2 -10 11 -13 8 -3
12 -2 9 4 -10 16 7 12 27 -7 18 -16 18 -16 12 2 -5 12 -4 16 3 12 13 -8 35
-67 25 -67 -10 0 -8 -152 2 -169 6 -10 5 -12 -3 -7 -8 6 -11 -3 -9 -29 1 -23
-3 -40 -12 -45 -11 -7 -12 -10 -2 -10 7 0 10 -5 7 -10 -4 -6 -10 -8 -15 -5 -9
5 -4 -41 6 -57 3 -5 0 -7 -8 -6 -8 2 -12 -4 -10 -16 2 -11 -1 -15 -7 -11 -6 3
-11 3 -12 -2 0 -4 -2 -19 -3 -32 -2 -13 -11 -30 -21 -37 -11 -8 -15 -14 -11
-14 5 0 0 -8 -11 -17 -10 -10 -12 -13 -3 -8 13 9 13 8 1 -7 -7 -10 -19 -18
-27 -18 -7 0 -18 -9 -24 -20 -6 -11 -16 -20 -22 -20 -6 0 -17 -8 -25 -17 -8
-11 -11 -12 -7 -3 7 13 6 13 -10 0 -20 -15 -37 -21 -78 -23 -14 -1 -24 -5 -22
-8 6 -10 -32 -15 -108 -14 -39 0 -68 -4 -68 -10 0 -6 -3 -6 -8 0 -4 6 -14 10
-22 10 -8 -1 -23 3 -34 8 -11 6 -16 5 -13 -1 4 -5 -4 -7 -18 -4 -14 2 -22 8
-19 13 8 13 -10 11 -24 -3 -9 -9 -12 -9 -12 1 0 7 -5 9 -10 6 -5 -3 -10 -2
-10 3 0 5 -12 7 -26 4 -19 -3 -25 -1 -20 7 7 10 -6 16 -28 12 -4 -1 -14 3 -22
10 -7 6 -18 8 -23 4 -7 -3 -8 0 -5 9 4 11 0 16 -15 16 -12 0 -21 5 -21 10 0 6
-7 10 -16 10 -8 0 -13 4 -10 8 3 5 -6 15 -19 22 -13 7 -22 17 -19 22 3 4 -2 8
-11 8 -9 0 -14 4 -11 9 3 5 -1 12 -10 15 -8 3 -13 10 -10 15 3 5 -1 12 -10 15
-8 3 -12 10 -9 16 3 5 1 10 -6 10 -7 0 -9 3 -6 7 4 3 1 13 -7 22 -8 9 -16 34
-18 56 -2 22 -8 47 -13 54 -4 8 -9 38 -10 67 -2 28 -6 58 -10 65 -6 8 -4 10 6
4 12 -8 12 -6 0 8 -11 14 -11 17 0 17 11 0 11 2 1 9 -7 4 -14 17 -15 29 0 11
-5 18 -9 16 -4 -3 -8 2 -8 10 0 9 -4 16 -10 16 -11 0 -14 43 -4 53 4 3 16 2
27 -4 13 -8 17 -8 13 0 -4 6 6 9 29 7 20 -1 38 1 41 6 8 13 26 9 19 -4 -4 -7
1 -4 9 6 10 13 16 15 16 7 0 -11 3 -11 17 0 9 8 14 9 10 3 -3 -6 0 -11 8 -11
8 0 11 5 8 10 -3 5 0 7 8 5 8 -3 22 -1 32 4 11 5 17 5 17 -2 0 -5 -5 -10 -12
-10 -6 0 -8 -3 -5 -7 4 -3 15 0 24 8 19 15 41 18 59 7 6 -4 20 -1 30 7 22 17
27 18 20 6z m1656 -5 c26 -1 48 3 48 8 0 5 6 4 13 -1 14 -11 27 -11 45 0 6 5
12 4 12 0 0 -5 15 -8 33 -8 17 1 40 -2 51 -8 10 -5 16 -5 13 0 -7 11 80 10 90
-2 5 -4 2 -5 -6 0 -9 5 -12 4 -7 -3 9 -15 38 -3 29 12 -3 6 4 2 17 -9 17 -15
24 -17 27 -7 4 10 8 10 21 0 9 -7 13 -8 10 -3 -3 6 4 10 17 10 13 0 21 -3 18
-7 -3 -7 73 -13 100 -9 4 0 7 -5 7 -11 0 -9 4 -8 10 2 6 9 10 11 10 3 0 -7 7
-10 15 -7 23 9 19 -29 -10 -79 -13 -25 -21 -47 -18 -51 4 -3 0 -6 -8 -6 -11 0
-11 -2 1 -10 8 -5 11 -10 5 -10 -5 0 -10 -19 -9 -42 1 -24 -4 -49 -10 -57 -9
-12 -8 -13 3 -6 11 6 13 4 6 -11 -5 -10 -9 -29 -9 -41 -1 -13 -5 -18 -11 -13
-6 5 -9 -6 -9 -31 1 -21 -2 -39 -7 -39 -5 0 -9 -7 -9 -15 0 -8 -5 -15 -11 -15
-6 0 -9 -7 -5 -15 3 -9 0 -15 -10 -15 -8 0 -12 -4 -9 -10 3 -5 1 -10 -4 -10
-6 0 -10 -3 -9 -7 4 -12 -68 -83 -76 -76 -3 4 -6 1 -6 -6 0 -7 -13 -17 -30
-22 -17 -6 -27 -16 -24 -21 5 -7 -3 -9 -20 -6 -14 3 -29 1 -33 -5 -4 -6 -1 -7
7 -2 9 6 11 4 6 -4 -5 -7 -14 -10 -22 -7 -8 3 -14 1 -14 -5 0 -6 -4 -7 -10 -4
-5 3 -10 2 -10 -3 0 -5 -14 -8 -31 -6 -20 3 -28 0 -23 -8 4 -7 3 -8 -5 -4 -7
4 -20 5 -29 1 -9 -4 -44 -9 -78 -10 -33 -1 -66 -5 -72 -9 -7 -4 -12 -3 -12 2
0 13 -33 10 -42 -3 -5 -7 -8 -6 -8 0 0 6 -16 11 -36 12 -20 0 -39 6 -43 12 -4
6 -23 9 -43 8 -26 -2 -35 0 -31 10 3 8 -3 13 -17 13 -14 0 -19 4 -14 12 5 8 2
9 -9 5 -9 -3 -20 0 -24 7 -5 7 -20 21 -35 31 -16 9 -28 22 -28 27 0 5 -7 16
-15 25 -8 8 -12 20 -8 26 4 7 0 8 -11 4 -10 -4 -15 -3 -11 4 4 5 1 16 -5 24
-6 8 -9 18 -6 24 3 5 -1 12 -10 15 -9 4 -14 13 -10 21 3 8 0 15 -7 15 -8 0 -6
4 3 10 9 6 11 10 3 10 -7 0 -10 7 -6 17 4 10 2 14 -5 9 -6 -3 -14 -2 -17 4 -4
6 -3 10 2 9 20 -3 27 2 13 11 -13 9 -13 11 0 20 13 8 12 10 -2 10 -10 0 -18 5
-18 11 0 5 5 7 12 3 7 -5 8 -3 2 7 -12 19 -14 248 -3 255 6 3 16 1 24 -6 10
-8 15 -8 21 1 4 8 3 9 -4 5 -7 -4 -12 -2 -12 4 0 8 9 10 26 6 14 -4 23 -3 21
1 -3 5 9 9 26 9 63 2 102 9 109 19 5 6 8 4 9 -5 0 -10 3 -8 9 5 7 17 9 17 9 3
1 -20 3 -21 25 -12 9 3 14 9 12 13 -2 3 15 7 37 8 23 1 45 -4 49 -10 6 -9 8
-8 8 1 0 7 4 11 9 7 5 -3 12 -1 16 5 4 6 11 7 18 3 6 -3 32 -7 59 -7z"/>
</g>
</svg>
